<svg class="svg-icon" style="width: 1em; height: 1em;vertical-align: middle;fill: currentColor;overflow: hidden;" viewBox="0 0 1024 1024" version="1.1" xmlns="http://www.w3.org/2000/svg"><path d="M915.304 561.336c4 51.52-9.296 112.136-21.864 155.744a40.024 40.024 0 0 1-49.52 27.36 40.008 40.008 0 0 1-27.36-49.52c16.2-56.16 22.72-106 17.92-136.752a40.024 40.024 0 0 1 5.936-27.896C841.44 528.688 944 368.56 944 258c0-101.072-86.04-177.6-200.128-178-106.952 0-186.448 46.832-250.064 147.384a40 40 0 1 1-67.616-42.768 509.408 509.408 0 0 1 41.064-56.304c-25.096-6.08-46.56-14.184-66.632-21.776C363.2 92.376 330.832 80.16 278.88 80 179.976 80.504 80 141.752 80 258c0 110.56 102.56 270.688 103.6 272.288a40.04 40.04 0 0 1 5.92 27.88c-6.16 39.4 6.36 109.296 32.664 182.4 27.008 75.064 63.76 141.696 98.32 178.24 18.824 19.92 31.712 25.136 36.904 25.136h0.136c0.328-0.04 0.656-0.056 0.984-0.08 0.104 0 0.208-0.032 0.32-0.032-1.096-11.864-5.512-31.248-8.68-45.176-10.68-46.96-23.984-105.384-10.24-166.504 16.496-73.384 68.776-130.752 155.384-170.504a39.968 39.968 0 0 1 32.896-0.208c87.136 38.624 139.696 95.464 156.216 168.944 13.736 61.072 0.304 119.92-10.48 167.2-3.072 13.464-7.752 33.952-8.848 46.248l0.672 0.088 0.168 0.008c7.824 0.576 35.96-12.16 76.048-76.96a40 40 0 0 1 68.04 42.08c-47.208 76.312-95.384 114.912-143.32 114.912-2.264 0-4.528-0.112-6.792-0.28-26.192-0.448-46.264-9.136-59.64-25.904-24.288-30.464-15.04-71.016-4.32-117.984C614.648 797.784 635.76 705.272 512.272 642.4 388.64 707.216 409.6 799.28 428.168 880.904c10.576 46.464 19.704 86.584-4.48 116.88-13.376 16.76-33.504 25.456-59.808 25.896-2.208 0.16-4.424 0.272-6.64 0.272-31.496 0-63.36-16.84-94.88-50.176-42.36-44.816-84.44-119.944-115.44-206.12-28.592-79.44-42.176-153.36-38.208-206.288C82.552 518.32 0 373.424 0 258 0 112.144 118.856 1.568 276.824 0.016L277.904 0h1.2l0.552 0.008c66.16 0.288 110.288 16.968 149.256 31.696 35.952 13.6 67.232 25.36 115.52 26.216C601.776 19.104 667.944 0 744.024 0c74.312 0.264 143.56 25.2 195.12 70.208C993.872 117.984 1024 184.672 1024 258c0 115.384-82.504 260.248-108.696 303.336zM863.12 258c0-27.44-10.08-50.2-29.952-67.664-22.224-19.528-53.888-30.4-89.168-30.616h-0.24a40 40 0 0 0-0.24 80c18.304 0.112 31.024 5.6 36.832 10.704 2.176 1.912 2.768 2.424 2.768 7.576a40 40 0 1 0 80 0z" fill="#4A90E2" /></svg>