<svg class="svg-icon" style="width: 1em;height: 1em;vertical-align: middle;fill: currentColor;overflow: hidden;" viewBox="0 0 1024 1024" version="1.1" xmlns="http://www.w3.org/2000/svg"><path d="M328.533333 1002.666667c-8.533333 0-17.066667 0-29.866666-4.266667-38.4-8.533333-72.533333-34.133333-102.4-85.333333C98.133333 750.933333 55.466667 332.8 106.666667 179.2c17.066667-55.466667 55.466667-98.133333 102.4-119.466667 128-51.2 311.466667 42.666667 332.8 55.466667 21.333333 12.8 29.866667 38.4 17.066666 59.733333-12.8 21.333333-38.4 29.866667-59.733333 17.066667-42.666667-29.866667-179.2-85.333333-256-55.466667-29.866667 12.8-46.933333 34.133333-55.466667 64-42.666667 136.533333-4.266667 524.8 81.066667 669.866667 17.066667 25.6 34.133333 42.666667 46.933333 46.933333 34.133333 4.266667 46.933333-17.066667 68.266667-119.466666 17.066667-81.066667 42.666667-183.466667 132.266667-204.8 21.333333-4.266667 46.933333 8.533333 51.2 29.866666 4.266667 21.333333-8.533333 46.933333-29.866667 51.2-38.4 8.533333-55.466667 76.8-68.266667 140.8-17.066667 81.066667-42.666667 187.733333-140.8 187.733334z" fill="#2B4832" /><path d="M891.733333 776.533333h-8.533333c-21.333333-4.266667-38.4-29.866667-29.866667-51.2 46.933333-187.733333 51.2-426.666667 29.866667-524.8-8.533333-25.6-21.333333-42.666667-42.666667-55.466666-64-34.133333-183.466667 0-226.133333 17.066666-4.266667 0-162.133333 55.466667-243.2 149.333334-17.066667 17.066667-42.666667 21.333333-59.733333 4.266666-21.333333-17.066667-21.333333-42.666667-4.266667-64 98.133333-110.933333 268.8-170.666667 277.333333-174.933333 12.8-4.266667 183.466667-64 290.133334-8.533333 42.666667 21.333333 72.533333 59.733333 85.333333 110.933333 29.866667 123.733333 17.066667 379.733333-29.866667 563.2-4.266667 21.333333-21.333333 34.133333-38.4 34.133333zM738.133333 1002.666667c-98.133333 0-119.466667-106.666667-140.8-187.733334-17.066667-64-29.866667-132.266667-72.533333-140.8-21.333333-4.266667-38.4-29.866667-29.866667-51.2 4.266667-21.333333 29.866667-38.4 51.2-29.866666 89.6 21.333333 115.2 123.733333 132.266667 204.8 25.6 102.4 38.4 123.733333 68.266667 119.466666 8.533333 0 38.4-12.8 68.266666-93.866666 8.533333-21.333333 34.133333-34.133333 55.466667-25.6 21.333333 8.533333 34.133333 34.133333 25.6 55.466666-34.133333 89.6-81.066667 136.533333-132.266667 149.333334h-25.6z" fill="#2B4832" /><path d="M802.133333 268.8h-29.866666c-25.6 0-42.666667-21.333333-42.666667-42.666667s21.333333-42.666667 42.666667-42.666666h34.133333c21.333333 4.266667 38.4 21.333333 38.4 46.933333-4.266667 21.333333-21.333333 38.4-42.666667 38.4zM448 396.8c-12.8 0-21.333333-4.266667-29.866667-12.8-17.066667-17.066667-12.8-42.666667 4.266667-59.733333 4.266667-4.266667 98.133333-85.333333 230.4-123.733334 21.333333-4.266667 46.933333 8.533333 51.2 29.866667 8.533333 21.333333-8.533333 46.933333-29.866667 51.2-110.933333 29.866667-196.266667 102.4-196.266666 102.4-8.533333 8.533333-17.066667 12.8-29.866667 12.8z" fill="#59D189" /></svg>